Coordinates
version=1
nRows=6
nColumns=40
inDegrees=yes

Units are S.I. units (second, meters, Newtons, ...)
If the header above contains a line with 'inDegrees', this indicates whether rotational values are in degrees (yes) or radians (no).

endheader
time	pelvis_tilt	pelvis_list	pelvis_rotation	pelvis_tx	pelvis_ty	pelvis_tz	hip_flexion_r	hip_adduction_r	hip_rotation_r	knee_angle_r	knee_angle_r_beta	ankle_angle_r	subtalar_angle_r	mtp_angle_r	hip_flexion_l	hip_adduction_l	hip_rotation_l	knee_angle_l	knee_angle_l_beta	ankle_angle_l	subtalar_angle_l	mtp_angle_l	lumbar_extension	lumbar_bending	lumbar_rotation	arm_flex_r	arm_add_r	arm_rot_r	elbow_flex_r	pro_sup_r	wrist_flex_r	wrist_dev_r	arm_flex_l	arm_add_l	arm_rot_l	elbow_flex_l	pro_sup_l	wrist_flex_l	wrist_dev_l
     17.85000000000000142109	     22.53259808547037224002	     -8.61083787002617384587	    173.19195800908116211758	      0.29618629769846410715	      0.90199104380733274855	     -0.58950136250880424971	     51.99612526114984234482	     -8.46487363455918462307	      2.42691373223609385690	     33.46101211377229844857	      0.58400483243503409359	      4.38969696320508617760	      0.00000000000000000000	      0.00000000000000000000	     47.13558051734003839783	     -0.95755494576653554795	    -14.61039214937050978449	     32.44453657897439313729	      0.56626398758684037826	      8.23529602542454419734	      0.00000000000000000000	      0.00000000000000000000	    -20.42435568979266591327	     -7.41710892747468086839	     -0.00070701741848075775	     29.72780815603106319145	    -15.07252392447055733271	     45.04528644116251712148	     12.46448655714844555575	      7.26846852370823892642	      0.00000000000000000000	      0.00000000000000000000	     37.37234944142529258215	    -18.49129607780420414542	     48.14758792265307363323	     16.89816201491493075082	     87.54021810237617273742	      0.00000000000000000000	      0.00000000000000000000
     17.85500000000000042633	     22.36369361213947115630	     -8.58204186291097848027	    173.21173468942592421627	      0.29500468588287620531	      0.90276899945743727116	     -0.58974629661023925120	     51.71373540091446585620	     -8.47410179600081647777	      2.46667273264438691172	     33.47392552108838259528	      0.58423021391035090399	      4.35282333826653200504	      0.00000000000000000000	      0.00000000000000000000	     46.85522908098270278288	     -0.92510523794003818310	    -14.58199165040548805905	     32.42881345381105973047	      0.56598956728403704286	      8.19892525111294823148	      0.00000000000000000000	      0.00000000000000000000	    -19.95584127149662378997	     -7.39009322157376669082	      0.03035204631825569321	     29.30327593404270558608	    -15.03670231413740943083	     45.06424424166385733770	     12.37672997776311589746	      7.26323280588269959424	      0.00000000000000000000	      0.00000000000000000000	     36.93326173265970169268	    -18.48450764296613257898	     48.20169362525363965233	     16.82490765310820535205	     87.55377150246258111110	      0.00000000000000000000	      0.00000000000000000000
     17.85999999999999943157	     22.19886226326702427514	     -8.54293542154526264198	    173.23078136323508147143	      0.29377792915130779283	      0.90358804449541829662	     -0.59007494941950044964	     51.40887853835002374581	     -8.46751629089799351391	      2.48142284053520478793	     33.45113058261669891635	      0.58383236718123043829	      4.34401972497153376906	      0.00000000000000000000	      0.00000000000000000000	     46.55153848369086233561	     -0.89857116011668702882	    -14.56227845695945788407	     32.36329086064611715301	      0.56484598229886406884	      8.17996459034502265695	      0.00000000000000000000	      0.00000000000000000000	    -19.48684394562416244412	     -7.36306602582676461566	      0.07901393366563315424	     28.84914811881523633019	    -15.00224416575580654865	     45.08264724746037899195	     12.31279280476944215650	      7.26210818372329569570	      0.00000000000000000000	      0.00000000000000000000	     36.49030917584578048718	    -18.49914554266913313540	     48.25288971688177497299	     16.78236347693220764654	     87.56710057362835186723	      0.00000000000000000000	      0.00000000000000000000
     17.86499999999999843681	     22.03673627520697664295	     -8.51347014195212459242	    173.23074694316255772719	      0.29260951320083683491	      0.90443642746031471802	     -0.59032288399683408020	     51.10774521207296317016	     -8.46281616654357726759	      2.49263405778663527101	     33.41102703168283483137	      0.58313242817569321819	      4.34140372496067872277	      0.00000000000000000000	      0.00000000000000000000	     46.24430994301503972110	     -0.86750454551188516117	    -14.53787467046590364816	     32.29008868964968570481	      0.56356836339536853231	      8.16281872268515584778	      0.00000000000000000000	      0.00000000000000000000	    -19.01835153526657862244	     -7.34154514474995600892	      0.12252422140770391490	     28.41949109357586777946	    -14.99507227632239647619	     45.09388958054175589041	     12.25784203762457913456	      7.26158219052708631125	      0.00000000000000000000	      0.00000000000000000000	     36.04378294496876122821	    -18.51884554767883983573	     48.29657515149457225334	     16.74343145559124934607	     87.58051226513845222144	      0.00000000000000000000	      0.00000000000000000000
     17.87000000000000099476	     21.21569574452467321635	     -8.48036183860225989406	    173.07304292501063969212	      0.29100751643362537946	      0.90739972748025288229	     -0.59085578418094175657	     49.62590234527970523004	     -8.42452447999699849390	      2.66332414562538533076	     32.44091186756690348147	      0.56620072443834512654	      4.49735007063487124412	      0.00000000000000000000	      0.00000000000000000000	     44.71700338883209013829	     -0.62889698230999724338	    -14.43625043195597434931	     31.14905458841318974805	      0.54365356145125731668	      8.18593271688122570140	      0.00000000000000000000	      0.00000000000000000000	    -19.42883216523671663367	     -7.42423412347787703425	      0.18991977479715449473	     28.03093940493634050881	    -15.23796829504140326605	     45.41147985846529877563	     12.74740468949451255298	      7.45324152784449989184	      0.00000000000000000000	      0.00000000000000000000	     35.68294127720176334151	    -18.72644407936448018859	     48.21434858163927117403	     17.23145045449614443100	     87.52775986438720678962	      0.00000000000000000000	      0.00000000000000000000
     17.87500000000000000000	     20.14863078389907968813	     -8.45821067282557770284	    172.92195008777767384345	      0.28908172992390634981	      0.91037249193875380282	     -0.59136660550993269680	     48.16311411186770641280	     -8.55177180554596283457	      2.53529096722360680616	     32.05715278272636226120	      0.55950286487343747766	      4.49651823557316010493	      0.00000000000000000000	      0.00000000000000000000	     43.13577182859662428882	     -0.46867226678032974929	    -14.67222713273052114857	     30.52112008826146549723	      0.53269403693674488576	      8.02962434619584008999	      0.00000000000000000000	      0.00000000000000000000	    -20.03564179998800298677	     -7.52265096052492410195	      0.16388255348587851823	     27.81512193501567153930	    -15.27277579983954858278	     46.08740489199718837199	     12.69546000908056271328	      7.63536414851346290078	      0.00000000000000000000	      0.00000000000000000000	     35.44313350381382576870	    -18.75970833028916118224	     48.29011824408485864524	     17.16281544364309397110	     87.49906099545582094379	      0.00000000000000000000	      0.00000000000000000000
